#N canvas 292 265 1216 728 12;
#X text 9 28 Subscribe to an Ableton Link Audio channel published on the LAN by Live \, Max \, TouchDesigner \, VCV Rack \, openFrameworks \, or another Pd., f 67;
#X text 64 219 inlet: messages (channel \, frompeer \, tempo \, transport \, quantum \, enable \, bang \, info), f 41;
#X text 151 663 audioL audioR tempo~ phase~ transport~ info (signal) (signal) (signal) (signal) (signal) (messages);
#X obj 387 239 void.linkaudio.receive~;
#X obj 142 425 dac~;
#X obj 190 91 loadbang;
#X obj 941 394 print info;
#X msg 402 185 info;
#X msg 345 147 channel;
#X obj 525 503 scope~ 130 130 256 3 128 -1 1 0 0 0 0 205 229 232 74 79 77 96 98 102 0 empty;
#X obj 588 389 tgl 19 0 empty empty empty 0 -10 0 12 #fcfcfc #000000 #000000 0 1;
#X obj 586 358 snapshot~;
#X obj 433 359 snapshot~;
#X obj 525 470 /~ 4;
#X obj 478 155 tgl 19 0 empty empty empty 0 -10 0 12 #fcfcfc #000000 #000000 0 1;
#X msg 479 184 transport \$1;
#X obj 432 393 nbx 5 17 -1e+37 1e+37 0 0 empty empty empty 0 -10 0 12 #fcfcfc #000000 #000000 0 256;
#X obj 688 273 metro 50;
#X obj 736 415 route quantum;
#X obj 737 449 nbx 5 17 -1e+37 1e+37 0 0 empty empty empty 0 -10 0 12 #fcfcfc #000000 #000000 0 256;
#X obj 688 240 loadmess 1;
#X obj 594 154 nbx 5 17 -1e+37 1e+37 0 0 empty empty empty 0 -10 0 12 #fcfcfc #000000 #000000 0 256;
#X msg 592 183 tempo \$1;
#X msg 298 122 channel test_pd;
#X obj 272 424 scope~ 86 86 256 3 128 -1 1 0 0 0 0 205 229 232 74 79 77 96 98 102 0 empty;
#X obj 177 425 scope~ 86 86 256 3 128 -1 1 0 0 0 0 205 229 232 74 79 77 96 98 102 0 empty;
#X text 213 521 audioL audioR (signal) (signal), f 18;
#X text 385 309 tempo~ (signal), f 9;
#X text 524 417 phase (signal), f 8;
#X text 733 466 quantum (message), f 9;
#X text 511 305 transport~ (signal), f 11;
#X text 72 664 outlets:;
#X msg 191 124 frompeer Live;
#X text 867 425 info messages at inlet produces the output of : publishing num_peers tempo channel frames_published frames_no_buffer frames_commit_fail, f 47;
#X text 526 14 VoidLinkAudio · Julien Bayle / Structure Void https://github.com/gluon/Void-LinkAudio https://structure-void.com;
#X text 10 8 void.linkaudio.receive~;
#X connect 3 0 4 0;
#X connect 3 0 25 0;
#X connect 3 1 4 1;
#X connect 3 1 24 0;
#X connect 3 2 12 0;
#X connect 3 3 13 0;
#X connect 3 4 11 0;
#X connect 3 5 6 0;
#X connect 3 5 18 0;
#X connect 5 0 23 0;
#X connect 5 0 32 0;
#X connect 7 0 3 0;
#X connect 8 0 3 0;
#X connect 11 0 10 0;
#X connect 12 0 16 0;
#X connect 13 0 9 0;
#X connect 14 0 15 0;
#X connect 15 0 3 0;
#X connect 17 0 11 0;
#X connect 17 0 12 0;
#X connect 18 0 19 0;
#X connect 18 0 13 1;
#X connect 20 0 17 0;
#X connect 21 0 22 0;
#X connect 22 0 3 0;
#X connect 23 0 3 0;
#X connect 32 0 3 0;
