#N canvas 547 346 1129 729 12;
#X text 540 14 VoidLinkAudio · Julien Bayle / Structure Void https://github.com/gluon/Void-LinkAudio https://structure-void.com;
#X text 10 8 void.linkaudio.send~;
#X text 9 28 Publish audio to an Ableton Link Audio channel on the LAN. Live \, Max \, TouchDesigner \, VCV Rack \, oF \, plugdata \, and other Pds will receive, f 69;
#X obj 329 325 metro 50;
#X obj 329 292 loadmess 1;
#X obj 494 290 void.linkaudio.send~;
#X obj 501 153 cycle~ 100;
#X obj 583 120 cycle~ 101;
#X obj 308 102 loadbang;
#X obj 751 359 print info-send;
#X msg 666 183 info;
#X msg 399 193 channel;
#X obj 469 517 scope~ 130 130 256 3 128 -1 1 0 0 0 0 205 229 232 74 79 77 96 98 102 0 empty;
#X obj 565 431 tgl 19 0 empty empty empty 0 -10 0 12 #fcfcfc #000000 #000000 0 1;
#X obj 568 400 snapshot~;
#X obj 394 398 snapshot~;
#X obj 469 483 /~ 4;
#X obj 393 432 nbx 5 17 -1e+37 1e+37 0 0 empty empty empty 0 -10 0 12 #fcfcfc #000000 #000000 0 256;
#X obj 646 399 route quantum;
#X obj 647 433 nbx 5 17 -1e+37 1e+37 0 0 empty empty empty 0 -10 0 12 #fcfcfc #000000 #000000 0 256;
#X msg 310 139 peer pd;
#X msg 367 160 channel main;
#X obj 724 130 tgl 19 0 empty empty empty 0 -10 0 12 #fcfcfc #000000 #000000 0 1;
#X msg 725 159 transport \$1;
#X obj 828 130 nbx 5 17 -1e+37 1e+37 0 0 empty empty empty 0 -10 0 12 #fcfcfc #000000 #000000 0 256;
#X msg 826 159 tempo \$1;
#X text 424 323 tempo~ (signal), f 9;
#X text 498 335 phase (signal), f 8;
#X text 650 455 quantum (message), f 9;
#X text 555 364 transport~ (signal), f 11;
#X text 82 651 outlets:;
#X text 754 380 info messages at inlet produces the output of : publishing num_peers tempo channel frames_published frames_no_buffer frames_commit_fail, f 47;
#X text 148 649 tempo~ phase~ transport~ info (signal) (signal) (signal) (messages), f 37;
#X text 50 229 inlet: signals & messages (channel \, peer \, tempo \, transport \, quantum \, enable \, bang \, info), f 41;
#X connect 3 0 15 0;
#X connect 3 0 14 0;
#X connect 4 0 3 0;
#X connect 5 0 15 0;
#X connect 5 1 16 0;
#X connect 5 2 14 0;
#X connect 5 3 9 0;
#X connect 5 3 18 0;
#X connect 6 0 5 0;
#X connect 7 0 5 1;
#X connect 8 0 21 0;
#X connect 8 0 20 0;
#X connect 10 0 5 0;
#X connect 11 0 5 0;
#X connect 14 0 13 0;
#X connect 15 0 17 0;
#X connect 16 0 12 0;
#X connect 18 0 19 0;
#X connect 18 0 16 1;
#X connect 20 0 5 0;
#X connect 21 0 5 0;
#X connect 22 0 23 0;
#X connect 23 0 5 0;
#X connect 24 0 25 0;
#X connect 25 0 5 0;
